<?xml version="1.0" encoding="UTF-8"?>
<svg id="Capa_1" data-name="Capa 1" xmlns="http://www.w3.org/2000/svg" viewBox="0 0 15 15">
  <defs>
    <style>
      .cls-1 {
        fill: #fff;
      }

      .cls-1, .cls-2 {
        stroke-width: 0px;
      }

      .cls-2 {
        fill: #ef7826;
      }
    </style>
  </defs>
  <path class="cls-2" d="m9.73,12.99c-1.23,1.21-3.23,1.21-4.46,0-.54-.53-1.06-1.07-1.56-1.62-1.18-1.3-1.78-2.82-1.78-4.56,0-1.58.54-2.93,1.62-4.04s2.45-1.67,3.95-1.67,2.87.56,3.95,1.67,1.62,2.46,1.62,4.04c0,1.74-.59,3.26-1.78,4.56-.51.56-1.03,1.1-1.56,1.62Z"/>
  <path class="cls-1" d="m6.42,11.01l-3.37-4.88c-.02.18-.04.37-.04.56,0,2.1,1.46,3.85,3.41,4.31m.87.11l-.85-8.75c-.92.22-1.74.72-2.34,1.4l2.85,7.32c.11.01.23.02.34.02m4.54-4.99l-3.38,4.88c1.96-.46,3.41-2.22,3.41-4.31,0-.19-.02-.38-.04-.56m-3.4-3.76l-.85,8.75c.11,0,.23,0,.34-.02l2.85-7.32c-.6-.69-1.41-1.19-2.34-1.4"/>
</svg>