<?xml version="1.0" encoding="UTF-8"?>
<svg id="Capa_1" data-name="Capa 1" xmlns="http://www.w3.org/2000/svg" viewBox="0 0 15 15">
  <defs>
    <style>
      .cls-1 {
        fill: #fff;
      }

      .cls-1, .cls-2 {
        stroke-width: 0px;
      }

      .cls-2 {
        fill: #ef7826;
      }
    </style>
  </defs>
  <path class="cls-2" d="m7.5,14.46c-1.35-1.14-2.61-2.36-3.79-3.66s-1.78-2.82-1.78-4.56c0-1.58.54-2.92,1.62-4.04s2.4-1.67,3.95-1.67,2.87.56,3.95,1.67,1.62,2.46,1.62,4.04c0,1.74-.59,3.26-1.78,4.56s-2.45,2.52-3.79,3.66Z"/>
  <path class="cls-1" d="m6.54,9.97l-2.99-4.33c-.02.16-.04.33-.04.5,0,1.86,1.29,3.42,3.03,3.83m.77.1l-.75-7.76c-.82.19-1.54.64-2.07,1.25l2.53,6.5c.1,0,.2.01.3.02m4.03-4.43l-3,4.33c1.74-.41,3.03-1.97,3.03-3.83,0-.17-.01-.33-.03-.5m-3.01-3.34l-.75,7.76c.1,0,.2,0,.3-.02l2.53-6.5c-.53-.61-1.26-1.05-2.08-1.25"/>
</svg>